<!-- Generated by IcoMoon.io -->
<svg version="1.1" xmlns="http://www.w3.org/2000/svg" width="32" height="32" viewBox="0 0 32 32">
<title>search</title>
<path fill="#fff" d="M31.102 26.862c0.511 0.537 0.825 1.265 0.825 2.067 0 1.657-1.344 3.001-3.001 3.001-0.804 0-1.535-0.316-2.074-0.832l0.001 0.001-8.769-8.78c-1.753 1.056-3.87 1.68-6.132 1.68-6.645 0-12.032-5.387-12.032-12.032s5.387-12.032 12.032-12.032c6.645 0 12.032 5.387 12.032 12.032 0 2.255-0.62 4.365-1.7 6.169l0.030-0.055 8.788 8.78zM12.002 3.018c-4.963 0-8.987 4.024-8.987 8.987s4.024 8.987 8.987 8.987c4.963 0 8.987-4.024 8.987-8.987v0c-0.002-4.963-4.025-8.985-8.987-8.987h-0z"></path>
</svg>
