<!-- Generated by IcoMoon.io -->
<svg version="1.1" xmlns="http://www.w3.org/2000/svg" width="32" height="32" viewBox="0 0 32 32">
<title>shopping-cart</title>
<path fill="#fff" d="M31.183 9.069l-4.409 9.778c-0.219 0.489-0.689 0.83-1.241 0.862l-0.004 0-12.658 0.844 0.729 2.093h13.796c1.62 0 2.933 1.313 2.933 2.933s-1.313 2.933-2.933 2.933c-1.619 0-2.932-1.312-2.933-2.932v-0h-13.689c-0.001 1.619-1.314 2.932-2.933 2.932s-2.933-1.313-2.933-2.933 1.313-2.933 2.933-2.933h2.649l-5.654-16.134h-3.36c-0.81 0-1.467-0.657-1.467-1.467s0.657-1.467 1.467-1.467v0h4.409c0.636 0.005 1.177 0.409 1.383 0.975l0.003 0.010 0.853 2.441h21.707c0.002 0 0.005-0 0.007-0 0.81 0 1.468 0.656 1.468 1.467v0c-0.005 0.216-0.050 0.421-0.129 0.608l0.004-0.011zM9.156 9.934l2.702 7.746 12.605-0.841 3.111-6.905h-18.419z"></path>
</svg>
